<?xml version="1.0" encoding="UTF-8" standalone="no"?>
<svg
   id="af2bd6cc-249c-411c-aa93-5c49c8ef8b3b"
   data-name="Layer 1"
   width="145"
   height="95.050003"
   viewBox="0 0 145.00001 95.049999"
   version="1.1"
   sodipodi:docname="entity-framework.svg"
   inkscape:version="1.2.2 (732a01da63, 2022-12-09)"
   xmlns:inkscape="http://www.inkscape.org/namespaces/inkscape"
   xmlns:sodipodi="http://sodipodi.sourceforge.net/DTD/sodipodi-0.dtd"
   xmlns="http://www.w3.org/2000/svg"
   xmlns:svg="http://www.w3.org/2000/svg"
   xmlns:rdf="http://www.w3.org/1999/02/22-rdf-syntax-ns#"
   xmlns:cc="http://creativecommons.org/ns#"
   xmlns:dc="http://purl.org/dc/elements/1.1/">
  <sodipodi:namedview
     id="namedview166"
     pagecolor="#505050"
     bordercolor="#eeeeee"
     borderopacity="1"
     inkscape:showpageshadow="0"
     inkscape:pageopacity="0"
     inkscape:pagecheckerboard="0"
     inkscape:deskcolor="#505050"
     showgrid="false"
     inkscape:zoom="2.8811392"
     inkscape:cx="161.91512"
     inkscape:cy="75.31743"
     inkscape:window-width="1920"
     inkscape:window-height="1027"
     inkscape:window-x="-8"
     inkscape:window-y="-8"
     inkscape:window-maximized="1"
     inkscape:current-layer="af2bd6cc-249c-411c-aa93-5c49c8ef8b3b" />
  <defs
     id="defs124">
    <linearGradient
       id="22e2f1b1-1690-4345-b4d0-658513da067a"
       x1="-763.65997"
       y1="457.75"
       x2="-762.65997"
       y2="457.75"
       gradientTransform="matrix(0,67.625723,67.625723,0,-30892.606,51663.924)"
       gradientUnits="userSpaceOnUse">
      <stop
         offset="0"
         stop-color="#0994dc"
         id="stop2" />
      <stop
         offset="0.35"
         stop-color="#66cef5"
         id="stop4" />
      <stop
         offset="0.85"
         stop-color="#127bca"
         id="stop6" />
      <stop
         offset="1"
         stop-color="#127bca"
         id="stop8" />
    </linearGradient>
    <linearGradient
       id="4bc3abc2-4617-48e7-a6ff-ac83e99f6120"
       x1="-763.71997"
       y1="457.62"
       x2="-762.71997"
       y2="457.62"
       gradientTransform="matrix(0,69.351031,69.351031,0,-31670.138,52982.375)"
       gradientUnits="userSpaceOnUse">
      <stop
         offset="0"
         stop-color="#0e76bc"
         id="stop11" />
      <stop
         offset="0.36"
         stop-color="#36aee8"
         id="stop13" />
      <stop
         offset="0.85"
         stop-color="#00adef"
         id="stop15" />
      <stop
         offset="1"
         stop-color="#00adef"
         id="stop17" />
    </linearGradient>
    <linearGradient
       id="d1ac1433-633a-4bb5-b596-216ce783595d"
       x1="-768.82001"
       y1="446.35999"
       x2="-767.82001"
       y2="446.35999"
       gradientTransform="matrix(0,-55.182735,-55.182735,0,24711.366,-42353.266)"
       gradientUnits="userSpaceOnUse">
      <stop
         offset="0"
         stop-color="#1c63b7"
         id="stop20" />
      <stop
         offset="0.5"
         stop-color="#33bdf2"
         id="stop22" />
      <stop
         offset="1"
         stop-color="#33bdf2"
         stop-opacity="0.42"
         id="stop24" />
    </linearGradient>
    <linearGradient
       id="c8db499c-868e-4f80-83a1-33dd7b2547c1"
       x1="-763.79999"
       y1="457.42999"
       x2="-762.79999"
       y2="457.42999"
       gradientTransform="matrix(0,72.006741,72.006741,0,-32860.789,55007.727)"
       gradientUnits="userSpaceOnUse">
      <stop
         offset="0"
         stop-color="#166ab8"
         id="stop27" />
      <stop
         offset="0.4"
         stop-color="#36aee8"
         id="stop29" />
      <stop
         offset="0.85"
         stop-color="#0798dd"
         id="stop31" />
      <stop
         offset="1"
         stop-color="#0798dd"
         id="stop33" />
    </linearGradient>
    <linearGradient
       id="9a20fbeb-4b1c-46f5-8110-3a2ad294ef49"
       x1="-763.92999"
       y1="457.14999"
       x2="-762.92999"
       y2="457.14999"
       gradientTransform="matrix(0,76.568413,76.568413,0,-34931.709,58503.083)"
       gradientUnits="userSpaceOnUse">
      <stop
         offset="0"
         stop-color="#124379"
         id="stop36" />
      <stop
         offset="0.39"
         stop-color="#1487cb"
         id="stop38" />
      <stop
         offset="0.78"
         stop-color="#165197"
         id="stop40" />
      <stop
         offset="1"
         stop-color="#165197"
         id="stop42" />
    </linearGradient>
    <linearGradient
       id="06be75c2-d48d-4e9a-b78f-792ac5181bf4"
       x1="382.35999"
       y1="-1702.34"
       x2="388.29001"
       y2="-1702.34"
       gradientTransform="matrix(1.8246705,0,0,-1.8246705,-657.26874,-3070.7003)"
       gradientUnits="userSpaceOnUse">
      <stop
         offset="0"
         stop-color="#33bdf2"
         stop-opacity="0.7"
         id="stop45" />
      <stop
         offset="1"
         stop-color="#1dacd8"
         id="stop47" />
    </linearGradient>
    <linearGradient
       id="f769838c-a503-40c3-bcf1-38dc75473203"
       x1="-768.90002"
       y1="446.20001"
       x2="-767.90002"
       y2="446.20001"
       gradientTransform="matrix(0,-53.755518,-53.755518,0,24106.672,-41261.526)"
       gradientUnits="userSpaceOnUse">
      <stop
         offset="0"
         stop-color="#136ab4"
         id="stop50" />
      <stop
         offset="0.6"
         stop-color="#59caf5"
         stop-opacity="0.55"
         id="stop52" />
      <stop
         offset="1"
         stop-color="#59caf5"
         stop-opacity="0.24"
         id="stop54" />
    </linearGradient>
    <linearGradient
       id="25b82b3c-a5ac-449d-b001-ac9a1941f8b6"
       x1="361.29001"
       y1="-1709.38"
       x2="383.31"
       y2="-1709.38"
       gradientTransform="matrix(1.8246705,0,0,-1.8246705,-657.26874,-3070.7003)"
       gradientUnits="userSpaceOnUse">
      <stop
         offset="0"
         stop-color="#05a1e6"
         stop-opacity="0.25"
         id="stop57" />
      <stop
         offset="1"
         stop-color="#05a1e6"
         id="stop59" />
    </linearGradient>
    <linearGradient
       id="3fcd5fa9-3e7e-4057-b7bf-01938ea6936d"
       x1="-768.83002"
       y1="446.35001"
       x2="-767.83002"
       y2="446.35001"
       gradientTransform="matrix(0,-55.042723,-55.042723,0,24591.172,-42245.046)"
       gradientUnits="userSpaceOnUse">
      <stop
         offset="0"
         stop-color="#318ed5"
         id="stop62" />
      <stop
         offset="1"
         stop-color="#38a7e4"
         id="stop64" />
    </linearGradient>
    <linearGradient
       id="9c45637f-b49b-4a2d-bd0c-4cd16673fc7c"
       x1="-768.90997"
       y1="446.17001"
       x2="-767.90997"
       y2="446.17001"
       gradientTransform="matrix(0,-53.502593,-53.502593,0,23898.429,-41066.674)"
       gradientUnits="userSpaceOnUse">
      <stop
         offset="0"
         stop-color="#05a1e6"
         id="stop67" />
      <stop
         offset="1"
         stop-color="#05a1e6"
         stop-opacity="0.55"
         id="stop69" />
    </linearGradient>
    <linearGradient
       id="575feb52-b24f-42af-843d-2f66120b3a1d"
       x1="-769.45001"
       y1="444.98001"
       x2="-768.45001"
       y2="444.98001"
       gradientTransform="matrix(0,-45.210278,-45.210278,0,20148.072,-34712.404)"
       gradientUnits="userSpaceOnUse">
      <stop
         offset="0"
         stop-color="#1959a6"
         id="stop72" />
      <stop
         offset="0.5"
         stop-color="#05a1e6"
         id="stop74" />
      <stop
         offset="0.92"
         stop-color="#7ec5ea"
         id="stop76" />
      <stop
         offset="1"
         stop-color="#7ec5ea"
         id="stop78" />
    </linearGradient>
    <linearGradient
       id="30b8fb1a-a7b1-48c7-9d2f-118b221e498d"
       x1="-770.28998"
       y1="446.34"
       x2="-769.28998"
       y2="446.34"
       gradientTransform="matrix(-8.6446026,-49.022214,-49.022214,8.6446026,15253.633,-41546.427)"
       gradientUnits="userSpaceOnUse">
      <stop
         offset="0"
         stop-color="#165096"
         id="stop81" />
      <stop
         offset="1"
         stop-color="#0d82ca"
         id="stop83" />
    </linearGradient>
    <linearGradient
       id="c51a15fc-ea05-4af4-986e-36986e810f88"
       x1="-772.09998"
       y1="439.13"
       x2="-771.09998"
       y2="439.13"
       gradientTransform="matrix(0,-25.617652,-25.617652,0,11361.863,-19735.584)"
       gradientUnits="userSpaceOnUse">
      <stop
         offset="0"
         stop-color="#05a1e6"
         id="stop86" />
      <stop
         offset="0.87"
         stop-color="#0495d6"
         id="stop88" />
      <stop
         offset="1"
         stop-color="#0495d6"
         id="stop90" />
    </linearGradient>
    <linearGradient
       id="4af48265-60e7-4f7d-bfef-4e4a13d1fdf0"
       x1="-764.40997"
       y1="458.76001"
       x2="-763.40997"
       y2="458.76001"
       gradientTransform="matrix(-10.415075,59.071451,59.071451,10.415075,-34938.773,40393.756)"
       gradientUnits="userSpaceOnUse">
      <stop
         offset="0"
         stop-color="#38a7e4"
         stop-opacity="0.33"
         id="stop93" />
      <stop
         offset="0.96"
         stop-color="#0e88d3"
         id="stop95" />
      <stop
         offset="1"
         stop-color="#0e88d3"
         id="stop97" />
    </linearGradient>
    <linearGradient
       id="d55341df-f1fb-4f71-a70d-876b5da3442c"
       x1="-763.16998"
       y1="458.82001"
       x2="-762.16998"
       y2="458.82001"
       gradientTransform="matrix(0,55.887311,55.887311,0,-25527.723,42670.791)"
       gradientUnits="userSpaceOnUse">
      <stop
         offset="0"
         stop-color="#168cd4"
         id="stop100" />
      <stop
         offset="0.5"
         stop-color="#1c87cc"
         id="stop102" />
      <stop
         offset="1"
         stop-color="#154b8d"
         id="stop104" />
    </linearGradient>
    <linearGradient
       id="0cbf02c2-0104-4c64-b493-1f90afb5e662"
       x1="-738.75"
       y1="451.73999"
       x2="-737.75"
       y2="451.73999"
       gradientTransform="matrix(28.5,11.82,11.82,-28.5,15808.9,21606.9)"
       gradientUnits="userSpaceOnUse">
      <stop
         offset="0"
         stop-color="#97d6ee"
         id="stop107" />
      <stop
         offset="0.7"
         stop-color="#55c1ea"
         id="stop109" />
      <stop
         offset="1"
         stop-color="#55c1ea"
         id="stop111" />
    </linearGradient>
    <linearGradient
       id="c313afaa-056c-44ba-9f36-cf6ae8030df9"
       x1="-743.57001"
       y1="427.04001"
       x2="-742.57001"
       y2="427.04001"
       gradientTransform="matrix(22.51,-10.21,-10.21,-22.51,21206.48,2036.38)"
       gradientUnits="userSpaceOnUse">
      <stop
         offset="0"
         stop-color="#7accec"
         id="stop114" />
      <stop
         offset="1"
         stop-color="#3fb7ed"
         id="stop116" />
    </linearGradient>
    <linearGradient
       id="d1cbdac2-0c2e-41de-a44d-b6fa61c40552"
       x1="-763.10999"
       y1="458.95999"
       x2="-762.10999"
       y2="458.95999"
       gradientTransform="matrix(0,54.663336,54.663336,0,-24981.293,41736.361)"
       gradientUnits="userSpaceOnUse">
      <stop
         offset="0"
         stop-color="#1da7e7"
         id="stop119" />
      <stop
         offset="1"
         stop-color="#37abe7"
         stop-opacity="0"
         id="stop121" />
    </linearGradient>
  </defs>
  <title
     id="title126">icon-ms</title>
  <path
     id="9fff70fe-4a20-4395-b73e-68995a9a1993"
     data-name="path12339"
     d="m 50.965398,29.925201 c 5.11269,15.622612 7.04576,43.498521 21.98638,43.498521 v 0 a 18.24219,18.24219 0 0 0 3.44158,-0.334222 v 0 C 62.812208,69.927942 61.199818,42.377223 52.907498,28.077947 v 0 c -0.64586,0.591664 -1.29172,1.205909 -1.94662,1.847254"
     style="fill:url(#22e2f1b1-1690-4345-b4d0-658513da067a);stroke-width:0.451651" />
  <path
     id="243f39b0-4082-4326-ab36-66325b69c66c"
     data-name="path12367"
     d="m 52.925568,28.077947 c 8.28327,14.276693 9.89567,41.845478 23.48586,45.011553 v 0 a 21.787651,21.787651 0 0 0 3.20672,-0.862654 v 0 C 67.423558,66.251501 64.058758,39.477623 54.646358,26.610081 v 0 c -0.56908,0.474234 -1.14268,0.97105 -1.71176,1.485933"
     style="fill:url(#4bc3abc2-4617-48e7-a6ff-ac83e99f6120);stroke-width:0.451651" />
  <path
     id="97819598-6e9f-48ba-abf0-a94d9f83d7d3"
     data-name="path12379"
     d="m 64.862698,19.586907 a 18.30542,18.30542 0 0 0 -3.44157,0.329704 26.308679,26.308679 0 0 0 -9.19111,3.843552 21.981861,21.981861 0 0 1 2.40731,2.831853 c 3.16155,-2.615061 6.27794,-4.543611 9.39433,-5.704355 a 20.730787,20.730787 0 0 1 3.50482,-0.975566 10.920925,10.920925 0 0 0 -2.67378,-0.325188"
     style="fill:#14559a;stroke-width:0.451651" />
  <path
     id="81f715f6-f916-4876-819b-8c81d8a91545"
     data-name="path12459"
     d="m 89.125398,66.716702 q 1.87436,-1.481416 3.74871,-3.283503 C 87.684638,47.88285 85.823838,19.623038 70.779338,19.623038 a 17.582779,17.582779 0 0 0 -3.24286,0.302607 c 13.68954,3.391899 15.46002,33.209908 21.58892,46.791057"
     style="fill:url(#d1ac1433-633a-4bb5-b596-216ce783595d);stroke-width:0.451651" />
  <path
     id="3c940e22-c3d9-4699-9c57-429d09d5f108"
     data-name="path12521"
     d="m 67.536478,19.912095 a 10.708648,10.708648 0 0 0 -2.67378,-0.325188 h 5.91664 a 17.614394,17.614394 0 0 0 -3.24286,0.307122"
     style="fill:#3092c4;stroke-width:0.451651" />
  <path
     id="54141d07-e248-4d8c-8527-44f0f1aece10"
     data-name="path12525"
     d="m 88.863448,70.022789 a 22.058641,22.058641 0 0 1 -1.69369,-1.833704 31.163928,31.163928 0 0 1 -7.56064,4.037761 11.74293,11.74293 0 0 0 2.8183,0.957501 11.846809,11.846809 0 0 0 2.40278,0.239375 c 2.80928,0 5.0314,-0.334222 6.92381,-1.242041 a 13.251444,13.251444 0 0 1 -2.89056,-2.158892"
     style="fill:#1969bc;stroke-width:0.451651" />
  <path
     id="ef55eeec-9389-4b7d-aad8-972a9b0edfaa"
     data-name="path12553"
     d="m 64.031658,20.887661 c 12.27589,6.42248 13.34178,35.495264 23.1381,47.301424 v 0 q 0.98459,-0.691026 1.95564,-1.472383 v 0 c -6.1289,-13.581149 -7.89938,-43.399158 -21.58892,-46.804607 v 0 a 21.159856,21.159856 0 0 0 -3.50482,0.975566"
     style="fill:url(#c8db499c-868e-4f80-83a1-33dd7b2547c1);stroke-width:0.451651" />
  <path
     id="947df287-50e3-4afd-a65c-b12952837621"
     data-name="path12581"
     d="m 54.637328,26.592016 c 9.4124,12.885607 12.78172,39.659485 24.97179,45.616764 v 0 a 31.163928,31.163928 0 0 0 7.56064,-4.037761 v 0 C 77.373438,56.364858 76.330128,27.292075 64.031658,20.869595 v 0 c -3.11639,1.160744 -6.24633,3.089294 -9.39433,5.704354"
     style="fill:url(#9a20fbeb-4b1c-46f5-8110-3a2ad294ef49);stroke-width:0.451651" />
  <path
     id="22ab39c0-5aeb-481a-a344-2af6a77fbb68"
     data-name="path12651"
     d="m 44.953918,29.545814 c -1.4769,3.337702 -2.98089,7.723234 -4.80556,13.445654 a 100.41559,100.41559 0 0 1 10.83962,-13.066267 38.48971,38.48971 0 0 0 -1.59884,-4.173257 54.7627,54.7627 0 0 0 -4.42167,3.79387"
     style="fill:url(#06be75c2-d48d-4e9a-b78f-792ac5181bf4);stroke-width:0.451651" />
  <path
     id="23d774d1-91fa-4e56-bfb9-94e7f4e329ae"
     data-name="path12655"
     d="m 50.685378,24.789927 c -0.45165,0.31164 -0.86718,0.627796 -1.30528,0.962017 a 38.507775,38.507775 0 0 1 1.5853,4.173257 c 0.65489,-0.641345 1.30076,-1.25559 1.94662,-1.847254 a 25.554421,25.554421 0 0 0 -2.25826,-3.28802"
     style="fill:#2b74b1;stroke-width:0.451651" />
  <path
     id="ebc0b52f-3316-475b-9be5-fc1487e19a18"
     data-name="path12659"
     d="m 52.230018,23.760163 c -0.51488,0.325188 -1.02524,0.668443 -1.54464,1.029764 a 26.042205,26.042205 0 0 1 2.25825,3.28802 c 0.56909,-0.514882 1.14268,-1.016215 1.71176,-1.485931 a 21.981861,21.981861 0 0 0 -2.4073,-2.831853"
     style="fill:#125a9e;stroke-width:0.451651" />
  <path
     id="e222603b-39c1-4207-8880-0dbfaf77ca7a"
     data-name="path12741"
     d="m 135.96163,18.39003 c -6.94188,26.77388 -21.4444,48.281507 -33.60285,53.701321 v 0 c -0.22131,0.09936 -0.45165,0.194209 -0.65489,0.280024 a 0.48778323,0.48778323 0 0 1 -0.0813,0.03162 l -0.18518,0.07227 c -0.0316,0 -0.0587,0 -0.0858,0.03613 -0.10388,0.03613 -0.20324,0.06775 -0.30261,0.108397 l -0.12646,0.04065 a 1.1517104,1.1517104 0 0 1 -0.14905,0.04968 l -0.14452,0.04968 -0.13098,0.04517 -0.26196,0.07678 a 0.57359694,0.57359694 0 0 0 -0.10839,0.03162 l -0.176152,0.04517 a 0.50584927,0.50584927 0 0 1 -0.11742,0.03614 l -0.1897,0.04968 -0.23486,0.04969 a 4.9410634,4.9410634 0 0 0 1.738862,0.307123 c 11.53065,0 23.15163,-20.658523 42.38294,-55.015625 h -7.56967 z"
     style="fill:url(#f769838c-a503-40c3-bcf1-38dc75473203);stroke-width:0.451651" />
  <path
     id="85ae914f-805b-4263-985a-0762281d3e57"
     data-name="path12803"
     d="m 37.646208,20.670869 c 0,0 0,0 0,0 a 0.02258256,0.02258256 0 0 0 0.0271,0 v 0 c 0.0632,0 0.12195,-0.04517 0.18518,-0.06775 a 0.0406486,0.0406486 0 0 0 0.0407,0 c 0,0 0.0316,0 0.0452,0 l 0.20325,-0.07226 v 0 c 0.15355,-0.04517 0.29357,-0.09936 0.45165,-0.153561 0,0 0.0407,0 0.0677,0 0.0271,0 0.12195,-0.04065 0.18518,-0.0542 0.0632,-0.01355 0.0632,0 0.0903,-0.03162 l 0.1897,-0.05419 c 0.0271,0 0.0542,0 0.0723,0 0.21227,-0.05872 0.42455,-0.117429 0.63683,-0.167111 0.0271,0 0.0542,0 0.0858,0 a 1.1200948,1.1200948 0 0 1 0.18518,-0.03613 0.29808975,0.29808975 0 0 1 0.0903,-0.0271 c 0.0587,0 0.12194,0 0.18518,-0.03614 h 0.0452 l 0.38391,-0.07226 h 0.0768 c 0.0632,0 0.11743,0 0.18066,-0.03162 0.0632,-0.03162 0.0677,0 0.0994,0 0.0316,0 0.11291,0 0.17162,0 a 0.17162743,0.17162743 0 0 0 0.0903,0 c 0.1355,0 0.27551,-0.0271 0.41552,-0.04065 -0.39745,-0.03614 -0.80845,-0.06323 -1.22397,-0.06323 C 27.678328,19.573353 9.7929479,43.68249 1.7354979,74.846415 h 1.55367 c 2.57893,-4.588772 4.8959,-8.938172 7.0277001,-13.021099 5.62757,-22.094773 17.12209,-37.166371 27.32941,-41.154451"
     style="fill:url(#25b82b3c-a5ac-449d-b001-ac9a1941f8b6);stroke-width:0.451651" />
  <path
     id="a04c711b-a119-4f72-b0a8-6d09efacd666"
     data-name="path12807"
     d="m 44.953918,29.545814 a 54.7627,54.7627 0 0 1 4.42167,-3.79387 19.926848,19.926848 0 0 0 -1.05235,-2.036947 24.976308,24.976308 0 0 0 -3.36932,5.830817"
     style="fill:#0d82ca;stroke-width:0.451651" />
  <path
     id="6ebcf5ab-b7fa-449a-beb2-80c47c61c2c9"
     data-name="path12811"
     d="m 46.019818,20.856046 a 11.04287,11.04287 0 0 1 2.30342,2.858951 c 0.22131,-0.266473 0.45166,-0.514882 0.67296,-0.74974 a 13.129498,13.129498 0 0 0 -3.16155,-2.195025 1.3549534,1.3549534 0 0 0 0.14,0.06774 v 0"
     style="fill:#0d82ca;stroke-width:0.451651" />
  <path
     id="953eeb24-d604-49e3-9d66-756a1f2cbf49"
     data-name="path12831"
     d="m 10.316798,61.829837 c 11.8197,-22.812899 17.42922,-37.252186 27.32941,-41.158968 v 0 c -10.20732,3.997113 -21.70184,19.064195 -27.32941,41.158968"
     style="fill:url(#3fcd5fa9-3e7e-4057-b7bf-01938ea6936d);stroke-width:0.451651" />
  <path
     id="865daab0-63c2-4e3b-b94b-b74611d290fa"
     data-name="path12843"
     d="m 48.991688,22.965257 c -0.23034,0.234858 -0.45165,0.483267 -0.66845,0.74974 a 21.923146,21.923146 0 0 1 1.05686,2.036947 c 0.45165,-0.334221 0.87169,-0.650377 1.30528,-0.962017 a 18.224123,18.224123 0 0 0 -1.69369,-1.806604"
     style="fill:#127bca;stroke-width:0.451651" />
  <path
     id="5f1ad690-e159-4c0d-aa7a-dbfe59f0a4dd"
     data-name="path12923"
     d="m 15.673378,74.75609 v 0 a 1.8066045,1.8066045 0 0 1 -0.21228,0.02712 h -0.0407 c -0.0632,0 -0.12647,0 -0.18518,0 h -0.0271 c -0.14905,0 -0.29358,0 -0.45165,0.03161 h -0.0452 c 11.98231,-0.338736 17.46083,-6.323114 20.17526,-15.035465 2.07759,-6.580557 3.7758,-12.135865 5.26625,-16.796905 -5.02236,7.063823 -10.06279,15.4826 -15.13031,24.913077 -2.44344,4.548126 -6.16053,6.449578 -9.34918,6.851548"
     style="fill:url(#9c45637f-b49b-4a2d-bd0c-4cd16673fc7c);stroke-width:0.451651" />
  <path
     id="0b513344-d537-42bf-9244-5c1e088e479b"
     data-name="path12949"
     d="m 15.673378,74.751574 v 0 c 3.18865,-0.406484 6.90574,-2.303419 9.34918,-6.851546 v 0 c 5.06752,-9.430475 10.13505,-17.849253 15.1258,-24.913076 v 0 c 1.8066,-5.726937 3.32866,-10.107953 4.80556,-13.445655 v 0 c -9.99052,9.511773 -20.02621,25.328596 -29.28054,45.20576"
     style="fill:url(#575feb52-b24f-42af-843d-2f66120b3a1d);stroke-width:0.451651" />
  <path
     id="9f519050-16cf-43f4-8aca-06a338614d2e"
     data-name="path12961"
     d="M 10.316798,61.829837 C 8.1985579,65.894697 5.8860979,70.262163 3.3071679,74.85997 h 4.51651 A 110.88487,110.88487 0 0 1 10.316798,61.829837"
     style="fill:#05a1e6;stroke-width:0.451651" />
  <path
     id="4d2dab44-9cc2-4328-b84c-5a74546910ff"
     data-name="path12981"
     d="m 41.480728,19.68627 c -0.0361,0 -0.0632,0 -0.0949,0 v 0 a 0.70909228,0.70909228 0 0 1 -0.16711,0 v 0 a 0.18517696,0.18517696 0 0 0 -0.0994,0 v 0 a 1.3820525,1.3820525 0 0 1 -0.18065,0.03162 v 0 a 0.11291278,0.11291278 0 0 0 -0.0768,0 v 0 l -0.38391,0.06775 h -0.0452 a 1.6620762,1.6620762 0 0 1 -0.18517,0.03613 v 0 a 0.37487044,0.37487044 0 0 1 -0.12195,0.10388 v 0 a 1.4181846,1.4181846 0 0 1 -0.18066,0.03614 v 0 a 0.17162743,0.17162743 0 0 1 -0.0903,0 v 0 l -0.63231,0.185176 v 0 c -0.0225,0 -0.0452,0 -0.0723,0 v 0 l -0.1897,0.05419 v 0 a 0.40196951,0.40196951 0 0 1 -0.0903,0.0271 v 0 l -0.18969,0.0542 v 0 c 0,0 -0.0452,0 -0.0678,0 v 0 c -0.14452,0.05419 -0.28905,0.112913 -0.45165,0.158078 v 0 l -0.20324,0.06775 v 0 a 0.45165113,0.45165113 0 0 1 -0.0813,0.03613 v 0 l -0.15808,0.10388 v 0 c 0,0 -0.0452,0 -0.0587,0.0271 v 0 c -9.90015,3.915809 -15.50966,18.35058 -27.34291,41.163478 v 0 A 109.95447,109.95447 0 0 0 7.8190679,74.869005 h 0.63682 c 1.8066101,0 2.2853601,0 4.3403701,0 h 1.99178 c 0.14001,0 0.28906,0 0.45165,-0.03161 h 0.0271 c 0.0632,0 0.12646,0 0.18517,0 h 0.0407 c 0.0677,0 0.14453,0 0.2168,-0.02255 v 0 c 9.25433,-19.87269 19.2855,-35.68048 29.28054,-45.205802 v 0 a 24.949209,24.949209 0 0 1 3.3648,-5.830817 v 0 a 10.889309,10.889309 0 0 0 -2.2989,-2.863468 v 0 c 0,0 0,0 -0.0271,0 v 0 l -0.14002,-0.06774 v 0 l -0.14001,-0.07226 v 0 l -0.15807,-0.126462 v 0 a 1.2781727,1.2781727 0 0 1 -0.15809,-0.06774 v 0 l -0.12646,-0.05419 v 0 l -0.26195,-0.112913 v 0 l -0.11291,-0.04065 v 0 l -0.19422,-0.07678 v 0 a 0.70005926,0.70005926 0 0 0 -0.0948,-0.0271 v 0 l -0.28453,-0.07226 h -0.0226 l -0.31164,-0.08581 v 0 a 0.14904487,0.14904487 0 0 0 -0.0723,0 v 0 l -0.26195,-0.07678 v 0 c 0,0 -0.0452,0 -0.0632,0 v 0 c -0.21228,-0.0542 -0.45165,-0.09936 -0.65941,-0.144528 v 0 c -0.0225,0 -0.0452,0 -0.0677,0 v 0 l -0.28453,-0.144528 v 0 a 0.0767807,0.0767807 0 0 0 -0.0587,0 v 0 l -0.33423,-0.04517 h -0.0632 c -0.0903,0 -0.17162,0 -0.25744,-0.0271 v 0 c -0.14453,0 -0.28002,0.0271 -0.41552,0.03614"
     style="fill:url(#30b8fb1a-a7b1-48c7-9d2f-118b221e498d);stroke-width:0.451651" />
  <path
     id="1d48d8f5-63b8-4faf-a435-f71c7a0a9b70"
     data-name="path13003"
     d="m 108.84449,33.217737 c -2.28084,7.303199 -4.1326,13.314676 -5.73145,18.269289 v 0 c 6.25085,-8.581372 12.40686,-19.420999 18.26929,-31.904636 v 0 c -6.838,2.145343 -10.48734,7.063824 -12.53784,13.635347"
     style="fill:url(#c51a15fc-ea05-4af4-986e-36986e810f88);stroke-width:0.451651" />
  <path
     id="cc16ff1c-5371-4c51-b9a6-d519e11a23ac"
     data-name="path13093"
     d="m 103.31177,71.6397 c -0.31616,0.162594 -0.63683,0.316156 -0.95299,0.451651 12.15845,-5.419814 26.64742,-26.927441 33.60285,-53.701321 h -1.40916 c -15.94779,28.499188 -21.07855,47.572415 -31.2407,53.24967"
     style="fill:url(#4af48265-60e7-4f7d-bfef-4e4a13d1fdf0);stroke-width:0.451651" />
  <path
     id="4a92eb0a-23f2-4663-bb7d-e0fcb24c8723"
     data-name="path13097"
     d="m 95.376258,69.245948 c 2.64216,-3.229305 4.796532,-8.716866 7.741302,-17.758922 A 89.246262,89.246262 0 0 1 92.892168,63.419649 c 0,0 0,0 0,0.0271 a 31.195544,31.195544 0 0 0 2.49312,5.7992"
     style="fill:#079ae1;stroke-width:0.451651" />
  <path
     id="ecaaabfe-1190-4620-bc6a-c512e04e961d"
     data-name="path13101"
     d="m 95.376258,69.245948 a 10.839627,10.839627 0 0 1 -2.91315,2.556346 c -0.23486,0.135495 -0.45165,0.261958 -0.7091,0.379387 a 10.261514,10.261514 0 0 0 3.70806,1.169776 v 0 l 0.60973,0.0542 h 0.0587 a 1.6033615,1.6033615 0 0 1 0.28907,0 h 0.98911 a 0.2393751,0.2393751 0 0 0 0.11291,0 0.90330229,0.90330229 0 0 0 0.21679,0 h 0.1084 a 2.2853548,2.2853548 0 0 0 0.23938,-0.0271 v 0 c 0.0225,0 0.0497,0 0.0723,0 l 0.25292,-0.04065 h 0.0768 l 0.28454,-0.04517 h 0.0452 c 0.1897,-0.03614 0.37939,-0.07226 0.56908,-0.121946 -1.57174,-0.573597 -2.88605,-1.92855 -4.01518,-3.857101"
     style="fill:#1969bc;stroke-width:0.451651" />
  <path
     id="a31cfa16-c37c-4f0c-abed-6ceac8fc0002"
     data-name="path13105"
     d="m 72.960808,73.423722 a 18.24219,18.24219 0 0 0 3.44158,-0.334222 21.787651,21.787651 0 0 0 3.20673,-0.862654 11.74293,11.74293 0 0 0 2.8183,0.957501 11.878425,11.878425 0 0 0 2.40278,0.239375 z"
     style="fill:#1e5cb3;stroke-width:0.451651" />
  <path
     id="ee3f6138-9342-427d-bc90-32faf721f109"
     data-name="path13109"
     d="m 84.839228,73.423722 c 2.80928,0 5.03592,-0.334222 6.92382,-1.242041 a 10.261514,10.261514 0 0 0 3.70805,1.169776 v 0 c 0.20324,0 0.40197,0.04065 0.60973,0.0542 h 0.0497 a 1.6033615,1.6033615 0 0 1 0.28906,0 h -11.58037 z"
     style="fill:#1e5cb3;stroke-width:0.451651" />
  <path
     id="4f1292cc-2f6d-44dd-a027-69e235bed4d3"
     data-name="path13113"
     d="m 96.744758,73.423722 h 0.65037 a 0.2393751,0.2393751 0 0 0 0.11292,0 0.93491787,0.93491787 0 0 0 0.22131,0 h 0.10839 a 2.2040576,2.2040576 0 0 0 0.23486,-0.0271 v 0 c 0.0271,0 0.0497,0 0.0723,0 0.0225,0 0.17162,-0.0271 0.25292,-0.03613 a 0.12194581,0.12194581 0 0 0 0.0768,0 l 0.28906,-0.04968 h 0.0452 c 0.18969,-0.03613 0.37486,-0.07227 0.56456,-0.11743 v 0 a 4.9681625,4.9681625 0 0 0 1.738852,0.302606 h -4.381012 z"
     style="fill:#1d60b5;stroke-width:0.451651" />
  <path
     id="34253ca9-185f-44f6-b6e3-f2facbc99a96"
     data-name="path13117"
     d="m 92.878618,63.451264 v 0 q -1.87886,1.806605 -3.7487,3.283505 c -0.65038,0.519398 -1.30075,1.007181 -1.95565,1.472382 a 21.990894,21.990894 0 0 0 1.6937,1.806604 13.274027,13.274027 0 0 0 2.89056,2.163409 c 0.23938,-0.117429 0.47423,-0.248408 0.70458,-0.379386 a 10.839627,10.839627 0 0 0 2.91766,-2.556346 31.023917,31.023917 0 0 1 -2.49763,-5.7992"
     style="fill:#175fab;stroke-width:0.451651" />
  <path
     id="f153080f-0bd7-4ff0-9dc1-1701c7d2f494"
     data-name="path13139"
     d="m 130.0992,18.39003 h -7.08189 c -0.38391,0 -0.75426,0.03162 -1.1201,0.05871 v 0 c -0.17163,0.370354 -0.35228,0.740708 -0.52392,1.115578 v 0 c -5.87146,12.483638 -12.01843,23.305198 -18.26476,31.904636 v 0 c -2.94025,9.033023 -5.099152,14.529618 -7.741312,17.758923 v 0 c 1.12913,1.92855 2.44796,3.28802 4.01067,3.861617 v 0 a 0.66392717,0.66392717 0 0 1 0.12194,-0.0271 h 0.0271 c 0.0271,0 0.0542,0 0.0858,0 v 0 l 0.19421,-0.04968 v 0 a 0.56456392,0.56456392 0 0 1 0.11743,-0.03162 v 0 l 0.176142,-0.04968 v 0 a 0.3206723,0.3206723 0 0 1 0.10839,-0.0271 v 0 l 0.26196,-0.0813 v 0 a 0.59166298,0.59166298 0 0 1 0.12647,-0.04065 v 0 a 1.1426774,1.1426774 0 0 0 0.14904,-0.0542 v 0 a 1.4407671,1.4407671 0 0 0 0.14904,-0.04968 v 0 c 0.0407,0 0.0858,-0.0271 0.12195,-0.04517 v 0 l 0.30712,-0.108397 v 0 c 0.0271,0 0.0542,0 0.0858,-0.03162 v 0 l 0.18517,-0.07226 v 0 a 0.21679255,0.21679255 0 0 1 0.0813,-0.0271 v 0 c 0.21227,-0.09033 0.45165,-0.18066 0.6549,-0.280024 h 0.0225 c 0.31616,-0.140012 0.63683,-0.293573 0.95298,-0.451651 v 0 C 113.46928,65.985007 118.60004,46.91178 134.54784,18.41711 h -4.44876 z"
     style="fill:url(#d55341df-f1fb-4f71-a70d-876b5da3442c);stroke-width:0.451651" />
  <path
     id="b0f1eb5c-7675-46bd-a91a-90273159cbd9"
     data-name="path13231"
     d="m 41.887208,19.650137 a 0.10387976,0.10387976 0 0 1 0.0723,0 0.62779508,0.62779508 0 0 1 0.18517,0 h 0.0632 l 0.33874,0.04517 a 0.06774767,0.06774767 0 0 1 0.0542,0 l 0.28455,0.04517 c 0,0 0.0497,0 0.0723,0 0.22131,0.04517 0.45165,0.09033 0.65489,0.149045 0,0 0.0452,0 0.0632,0 0.0903,0 0.17162,0.04517 0.26195,0.07226 0.0903,0.0271 0.0497,0 0.0723,0 0.1084,0.0271 0.20776,0.0542 0.31164,0.09033 0,0 0,0 0.0271,0 l 0.27099,0.09033 a 0.57359694,0.57359694 0 0 0 0.10388,0.03613 l 0.19873,0.0813 a 0.33873835,0.33873835 0 0 1 0.1084,0.03613 l 0.26195,0.112912 0.12646,0.0542 a 1.6620762,1.6620762 0 0 0 0.15808,0.06774 l 0.14002,0.06323 0.14,0.07226 a 13.016586,13.016586 0 0 1 3.13447,2.195024 10.126018,10.126018 0 0 1 1.11558,-0.858137 12.257812,12.257812 0 0 0 -7.27159,-2.371168 c -0.31615,0 -0.63682,0 -0.96201,0.04517"
     style="fill:#7dcbec;stroke-width:0.451651" />
  <path
     id="53ff3482-b37f-4066-8274-d5b329d4fc8a"
     data-name="path13235"
     d="m 48.991688,22.965257 a 18.224123,18.224123 0 0 1 1.69369,1.806604 c 0.5194,-0.36132 1.02976,-0.704576 1.54464,-1.029764 a 15.80779,15.80779 0 0 0 -2.12727,-1.806605 9.9950399,9.9950399 0 0 0 -1.11106,1.007182"
     style="fill:#5ec5ed;stroke-width:0.451651" />
  <g
     id="6c66e2bd-1e57-46c8-a142-9f0839c9e3e2"
     data-name="g13243"
     transform="matrix(0.45165113,0,0,0.45165113,1.7354279,18.39003)">
    <path
       id="22dd263f-07a8-4d3f-8368-f4932ee90850"
       data-name="path13245"
       d="M 88.9,2.79 C 89.62,2.72 90.33,2.7 91.03,2.7 A 27.22,27.22 0 0 1 107.1,7.89 C 112,4 118,2.65 126.25,2.65 H 86.19 a 26.86,26.86 0 0 1 2.71,0.14"
       style="fill:url(#0cbf02c2-0104-4c64-b493-1f90afb5e662)" />
  </g>
  <g
     id="79e23897-e286-4546-9947-b8db24890c0f"
     data-name="g13253"
     transform="matrix(0.45165113,0,0,0.45165113,1.7354279,18.39003)">
    <path
       id="8756facc-76ee-42ee-a12b-95b4beccc6f7"
       data-name="path13255"
       d="M 126.25,2.65 C 118,2.65 112,4 107.1,7.89 a 36.37,36.37 0 0 1 4.7,4 58.36,58.36 0 0 1 20.35,-8.51 41.38,41.38 0 0 1 7.62,-0.73 z"
       style="fill:url(#c313afaa-056c-44ba-9f36-cf6ae8030df9)" />
  </g>
  <path
     id="feddcb59-4309-445f-859a-b895ced50bea"
     data-name="path13333"
     d="m 103.11304,51.491542 c 1.60787,-4.968162 3.45061,-10.975122 5.73145,-18.273805 2.05502,-6.57604 5.69984,-11.490004 12.53784,-13.635347 0.18066,-0.365838 0.34777,-0.745225 0.52391,-1.120095 -11.14675,0.668444 -16.35428,6.323116 -18.96935,14.737376 -4.584252,14.660597 -7.361912,24.163336 -10.035682,30.219978 A 89.13335,89.13335 0 0 0 103.12208,51.491542"
     style="fill:url(#d1cbdac2-0c2e-41de-a44d-b6fa61c40552);stroke-width:0.451651" />
  <metadata
     id="metadata474">
    <rdf:RDF>
      <cc:Work
         rdf:about="">
        <dc:title>icon-ms</dc:title>
      </cc:Work>
    </rdf:RDF>
  </metadata>
</svg>
